# xmcd
#
# Track frame offsets:
#	150
#	18150
#	28575
#	45075
#	60375
#	76650
#	89625
#	99525
#	112800
#	126600
#	146360
#	167400
#	200305
#
# Disc length: 2866
#
# Revision: 2
# Processed by: cddbd v1.5.1PL0 Copyright (c) Steve Scherf et al.
# Submitted via: DiscPlay 4.0.4
# Normalized: r1:DSETVAR1,TDELIM( - )
#
DISCID=950b300d
DTITLE=Various Artist - The Ultimate Blues Collection Vol. One Disc 2
DYEAR=1900
DGENRE=
TTITLE0=Guitar Slim - Outdoor Weather Blues
TTITLE1=Richard Bargel - Dancing Up That Country Road
TTITLE2=Guitar Slim - Hard Headed Blues
TTITLE3=Richard Bargel - Blue Steel
TTITLE4=Richard Bargel - Me And The Devil Blues
TTITLE5=Big Joe Williams - Down In The Bottom
TTITLE6=Big Joe Williams - Boogie Woogie All Night Long
TTITLE7=Big Joe Williams - I'm Gonna Do It This Time
TTITLE8=Big Joe Williams - In The Evening When The Sun Goes Down
TTITLE9=Doctor Ross - Chicago Breakdown
TTITLE10=Doctor Ross - 30:20 Blues
TTITLE11=Doctor Ross - Sweet Black Angel
TTITLE12=Doctor Ross - China Blues
EXTD=
EXTT0=
EXTT1=
EXTT2=
EXTT3=
EXTT4=
EXTT5=
EXTT6=
EXTT7=
EXTT8=
EXTT9=
EXTT10=
EXTT11=
EXTT12=
PLAYORDER=
